# xmcd
#
# Track frame offsets: 
#        300
#        16908
#        31969
#        54323
#        72206
#        95272
#        116141
#        145014
#        177379
#        192740
#        206269
#
# Disc length: 3025 seconds
#
# Revision: 0
# Processed by: cddbd v1.5.2PL0 Copyright (c) Steve Scherf et al.
# Submitted via: ExactAudioCopy v0.99pb5
#
DISCID=970bcd0b
DTITLE=Ross Neilsen - What You Need Vol.1
DYEAR=2009
DGENRE=Blues
TTITLE0=Let the Good Times Roll
TTITLE1=Tea Blues
TTITLE2=Mailman
TTITLE3=Let It Ride
TTITLE4=Goin' Down Slow
TTITLE5=Muscle In My Arm
TTITLE6=Back For More
TTITLE7=Thrill Is Gone
TTITLE8=Jelly Bean
TTITLE9=Yonderwall
TTITLE10=Texas
EXTD=
EXTT0=
EXTT1=
EXTT2=
EXTT3=
EXTT4=
EXTT5=
EXTT6=
EXTT7=
EXTT8=
EXTT9=
EXTT10=
PLAYORDER=
